<svg version="1" xmlns="http://www.w3.org/2000/svg" width="528" height="528" viewBox="0 0 396.000000 396.000000"><path d="M0 198v198h396V0H0v198zM165.3 81.1c5.6 1.5 6.7 4.9 6.7 20.3 0 12.3 0 12.5 4.4 23.9 2.5 6.3 9.7 27.8 16.1 47.8 6.4 20 13.6 41.6 16.1 48 4.1 10.8 6 14.4 14.3 27.5 1.8 2.9 3.8 6.9 4.6 9l1.3 3.8 1.6-3.2c2.7-5.3 5.6-6.5 13.4-5.8 3.7.4 10.1 1.7 14.2 2.8 5.7 1.5 9.2 1.9 14.5 1.5 23.5-1.8 58.5-22.6 58.5-34.8 0-5.2-8.4-9.9-30.3-17-32.9-10.7-48.6-20-58.7-34.9-7.3-10.7-10.2-27.8-6.6-37.8 6.2-17.2 30.1-34 58.6-41.3 9.7-2.5 29.5-4.2 39-3.4 12.9 1.1 24.4 4.2 29.7 8.2 12.4 9.2 14.9 19.1 8.5 33.7-2.6 5.9-6.8 7.7-19.3 8.3l-9.9.6v-5.4c0-10.9-2.1-14.1-10.5-16.9-13-4.3-39.7 3.2-52.4 14.6-10.3 9.2-10.7 15.4-1.9 26.7 5.9 7.4 11.7 10.1 53.9 25.1 9.6 3.4 22.2 10.5 27.2 15.4 10.5 10.1 12.9 25.6 6 38.5-6.5 12.1-26.5 28.9-44.4 37.1-15.5 7.2-39.1 12.6-54.9 12.6-14.8 0-31.4-5.5-36.2-12l-2.2-3-2.5 2.4c-4.2 3.8-6.6 4.6-14.1 4.6-8.8 0-11.7-1.4-17.1-8.2-6.1-7.8-16-28.9-20.5-44-.8-2.6-1.9-5-2.5-5.3-.5-.4-5.1.7-10.2 2.4-9 2.9-25.7 6.6-50.5 11.1l-12.3 2.2-9.3 14.2c-11.6 17.7-19.2 26.8-24.9 29.5-3.4 1.7-6.2 2.1-13.3 2.1-10.1 0-14.7-1-19.4-4.3-10.4-7-9.5-17.2 1.7-19.2 3.2-.6 4.5-1.7 8.3-6.8 7.5-10.3 16.4-23.7 31.2-47 7.8-12.2 19.4-29.9 25.9-39.2 14.1-20.5 22.7-35.7 30.8-54.4 10.8-25 16.2-31 27.6-31.1 3.3 0 7.7.5 9.8 1.1z"/><path d="M139.9 159.6c-9.4 14.8-19.9 32.5-23.4 39.4l-2.7 5.3 2.4-.6c2.1-.4 37.5-9.9 42.6-11.3 1.2-.3 2.2-.9 2.2-1.3 0-.9-9.2-30.5-11.8-38l-1.8-5.4-7.5 11.9z"/></svg>